<?xml version="1.0" encoding="utf-8"?>
<!-- Generator: Adobe Illustrator 22.0.1, SVG Export Plug-In . SVG Version: 6.00 Build 0)  -->
<svg version="1.1" id="Layer_1" xmlns="http://www.w3.org/2000/svg" xmlns:xlink="http://www.w3.org/1999/xlink" x="0px" y="0px"
	 viewBox="0 0 82.8 91.5" style="enable-background:new 0 0 82.8 91.5;" xml:space="preserve">
<style type="text/css">
	.st0{fill:#FE2323;}
</style>
<g>
	<path class="st0" d="M72.9,32.5C74.5,37,66.8,42,74.8,46c-4.4,3.6-8.5,7.1-12.9,10.4c-3.1,2.3-4.6,4.7-2.3,8.6
		c-4.7,1-8.8-0.5-13-1.1c-3.7-0.5-4.3,0.7-4.2,3.9c0.2,3.7,0.1,7.3,0.1,11c0,0.9,0.4,2.3-0.9,2.4c-1.9,0.1-1.2-1.6-1.2-2.6
		c0-3.5-0.1-7,0.2-10.5c0.2-3.3-0.2-4.9-4.3-4.2c-4,0.7-8.1,2-12.7,1.2c2.5-4.5-0.1-7-3.4-9.4c-4-3-7.7-6.2-11.9-9.6
		c8.4-3.8,0.3-9,1.8-13.5c3.5-1.8,9.5,5.5,11.6-3.8c2.2,2.5,4,4.5,5.9,6.5c0.9,0.9,1.6,2.7,3.1,2c1.7-0.8,0.7-2.6,0.4-4
		c-0.8-4.5-1.7-9-2.9-14.8c7.2,5.6,8.4,0,10.6-4.1c0.7-1.4,1.1-3.1,3-4.2c1.1,1.9,2.3,3.7,3,5.6c1.8,4.5,4.1,7.3,9.9,2.5
		c-1.2,6.2-2.2,11.2-3.1,16.1c-0.2,1-0.8,2.5,0.7,3c1.1,0.4,1.8-0.6,2.4-1.4c2-2.2,4-4.4,6.4-7.1C63.2,38.2,69.3,31,72.9,32.5z"/>
</g>
</svg>
